<svg version="1.1" id="Layer_1" xmlns="http://www.w3.org/2000/svg" xmlns:xlink="http://www.w3.org/1999/xlink" x="0px" y="0px"
	 width="100%" viewBox="0 0 1024 1024" enable-background="new 0 0 1024 1024" xml:space="preserve">
<path fill="#000000" opacity="1.000000" stroke="none" 
	d="
M383.964874,586.016418 
	C374.698395,576.117737 369.466705,564.527710 366.899292,551.760132 
	C366.070496,547.638489 364.421997,545.880798 360.293945,546.345947 
	C358.813416,546.512756 357.297119,546.395264 355.798248,546.360596 
	C349.178253,546.207520 345.707214,542.777283 345.687195,536.083374 
	C345.633362,518.087891 345.670074,500.092163 345.672333,482.096527 
	C345.674286,466.433655 345.676941,450.770782 345.681976,435.107910 
	C345.684723,426.612152 345.982391,427.453796 338.239563,427.323517 
	C331.600281,427.211823 328.332855,423.693787 328.653076,417.332550 
	C328.910828,412.212402 332.587769,408.794708 338.319794,408.698334 
	C345.815918,408.572296 353.319336,408.519165 360.812256,408.714966 
	C364.556030,408.812805 365.726501,407.372375 365.685486,403.727448 
	C365.392761,377.750885 365.178894,351.772736 365.141510,325.794800 
	C365.136078,322.031006 363.011688,322.434845 360.641724,322.309875 
	C349.185547,321.705719 338.572601,319.007111 330.711060,309.806274 
	C326.267242,304.605408 323.333405,298.866364 323.596710,291.710938 
	C323.847748,284.888519 323.923492,278.034943 323.560364,271.222595 
	C323.277313,265.912872 324.845856,261.498322 327.817139,257.255280 
	C338.131683,242.526031 348.434418,227.786469 358.537750,212.912323 
	C362.850708,206.562805 368.451294,203.645081 376.151825,203.651230 
	C467.296326,203.724014 558.440918,203.702408 649.585449,203.621735 
	C657.193420,203.614990 662.912170,206.275726 667.293152,212.695953 
	C677.709656,227.961365 688.440308,243.012726 699.078186,258.126526 
	C701.352844,261.358215 702.577026,264.754333 702.429199,268.826996 
	C702.181580,275.649841 702.356140,282.487885 702.349670,289.319550 
	C702.335815,304.005554 695.171936,314.018341 681.270691,319.049530 
	C675.872375,321.003296 670.234070,321.495575 664.627258,321.956635 
	C661.054810,322.250366 660.276306,323.831329 660.287903,327.055145 
	C660.380249,352.715240 660.387207,378.375977 660.292847,404.036072 
	C660.280212,407.463989 661.383362,408.799469 664.900452,408.711670 
	C672.393921,408.524719 679.895813,408.607697 687.393433,408.672821 
	C693.852051,408.728912 698.196960,412.456116 698.301453,417.871399 
	C698.408691,423.428223 693.932922,427.250153 687.204346,427.347229 
	C680.357117,427.446045 680.347412,427.445984 680.346191,434.188721 
	C680.340149,466.514221 680.345947,498.839722 680.333679,531.165222 
	C680.329895,541.029053 675.157104,546.275818 665.332275,546.340881 
	C656.834717,546.397156 648.336060,546.424500 639.838928,546.351746 
	C636.380005,546.322144 635.124146,547.190735 636.063171,551.084534 
	C639.096741,563.664490 641.764404,576.334167 644.457520,588.993835 
	C645.197693,592.472961 646.825195,593.866638 650.587463,593.764648 
	C660.410950,593.498535 670.247070,593.648376 680.077698,593.710266 
	C687.241638,593.755371 691.302490,597.169861 691.293274,602.973511 
	C691.284302,608.628540 686.925049,612.327576 680.081787,612.328308 
	C568.608826,612.340210 457.135803,612.339905 345.662811,612.327087 
	C338.982208,612.326294 335.327576,609.676636 334.706970,604.572571 
	C333.884705,597.809692 337.607391,593.780640 345.060883,593.726746 
	C358.890198,593.626709 372.720734,593.701355 386.550476,593.643555 
	C388.136749,593.636902 389.833740,594.124634 391.551666,593.005554 
	C389.040192,590.700073 386.626953,588.484802 383.964874,586.016418 
M452.569489,472.585266 
	C478.733429,480.312164 496.374451,496.393066 502.361725,523.711914 
	C503.206146,527.564941 505.077148,528.684326 508.889099,528.677368 
	C557.874084,528.587646 606.859558,528.583069 655.844238,528.752930 
	C660.551514,528.769287 661.761414,527.213318 661.736145,522.708496 
	C661.568970,492.885071 661.562622,463.059723 661.742249,433.236420 
	C661.769592,428.700378 660.556030,427.254486 655.872192,427.261078 
	C560.900940,427.394653 465.929474,427.402832 370.958221,427.274963 
	C366.194702,427.268524 365.090302,428.867859 365.113129,433.306702 
	C365.267242,463.296692 365.178986,493.287903 365.221069,523.278625 
	C365.223236,524.824951 364.585846,526.652832 366.606812,528.070068 
	C379.708221,486.071503 406.314087,464.714569 452.569489,472.585266 
M570.366394,319.395111 
	C565.811951,318.274200 561.300476,316.820374 557.529785,314.066711 
	C554.202209,311.636658 551.753174,311.995453 548.165588,313.862366 
	C524.286438,326.288635 500.266388,325.755493 476.533691,313.385132 
	C473.523895,311.816284 471.614319,312.074890 468.878693,313.652100 
	C451.200592,323.844177 432.390350,325.846924 413.887146,317.448853 
	C405.121521,313.470367 398.109344,311.406860 390.333038,317.915192 
	C389.975769,318.214172 389.415405,318.322784 388.929962,318.408051 
	C384.977478,319.102325 384.255035,321.651031 384.272797,325.300690 
	C384.398590,351.127625 384.440491,376.956177 384.249634,402.782288 
	C384.215942,407.338715 385.480377,408.752930 390.148102,408.745605 
	C471.962891,408.616913 553.778015,408.618774 635.592773,408.757629 
	C640.494263,408.765961 641.781799,407.187683 641.744263,402.464081 
	C641.544373,377.304626 641.481934,352.140747 641.785278,326.983368 
	C641.849365,321.667786 640.478699,318.634705 635.240540,317.280945 
	C633.044861,316.713470 630.792725,315.549194 629.091675,314.057220 
	C625.842346,311.207275 623.161072,311.967957 619.776489,313.936066 
	C604.443604,322.852020 588.128296,324.221405 570.366394,319.395111 
M363.521484,260.628723 
	C467.404785,260.628723 571.288086,260.628723 675.257324,260.628723 
	C675.165710,257.908783 674.018372,256.603912 673.103394,255.286682 
	C666.645813,245.990784 659.952637,236.854340 653.670776,227.442673 
	C651.313599,223.911133 648.513306,222.897522 644.487732,222.937057 
	C624.665894,223.131683 604.841797,223.125854 585.018494,223.140701 
	C517.216309,223.191467 449.414093,223.255692 381.612030,223.174088 
	C377.516937,223.169159 374.812317,224.239777 372.556000,227.756622 
	C368.333801,234.337601 363.640625,240.614655 359.224518,247.073624 
	C356.368225,251.251205 352.944519,255.087814 350.418732,260.627319 
	C354.984222,260.627319 358.758575,260.627319 363.521484,260.628723 
M382.121521,300.675598 
	C387.268188,298.568848 391.837982,295.603394 395.848297,291.727264 
	C400.643768,287.092194 403.218536,287.185638 408.059875,291.817200 
	C415.959839,299.374786 425.270874,303.541077 436.328369,303.675812 
	C448.657013,303.826019 459.087067,299.449249 467.734467,290.772125 
	C470.620789,287.875854 473.814423,286.697327 476.876099,289.849518 
	C487.976501,301.277863 501.704193,304.601135 517.029602,303.682953 
	C528.201721,303.013641 538.190735,299.595459 546.495483,291.880707 
	C552.084656,286.688660 553.424622,286.632935 558.898926,291.811401 
	C567.284363,299.743561 577.261719,303.777100 588.750122,303.597839 
	C600.388367,303.416290 610.457336,299.234589 618.750488,290.877136 
	C622.779236,286.817108 625.837708,286.408691 629.019958,290.030365 
	C639.066223,301.464020 651.975281,303.856415 666.233582,302.667603 
	C678.881531,301.613007 683.675049,296.746246 683.655701,284.741577 
	C683.645447,278.372650 683.645447,278.365143 676.846252,278.365540 
	C567.850098,278.372070 458.853943,278.380341 349.857788,278.391327 
	C348.358337,278.391479 346.856689,278.387848 345.360016,278.463806 
	C343.890991,278.538422 342.967651,279.236053 342.503265,280.755249 
	C339.784485,289.649963 344.211761,298.498932 353.042908,301.594025 
	C362.568298,304.932465 372.012054,304.226501 382.121521,300.675598 
M430.745605,490.341309 
	C416.645996,491.253540 405.372284,497.536407 396.551208,508.413086 
	C378.030182,531.250061 383.293182,565.167969 408.056274,580.811646 
	C424.804016,591.391846 442.152100,591.421387 459.784271,582.642639 
	C481.088165,572.035828 487.480103,548.518982 485.104004,532.632812 
	C481.837555,510.793854 460.411255,487.625183 430.745605,490.341309 
M606.498657,593.676086 
	C612.573486,593.676086 618.648376,593.676086 625.041077,593.676086 
	C624.808960,591.431458 624.804993,590.095886 624.518738,588.823914 
	C621.678040,576.202026 618.640198,563.621826 616.013550,550.956177 
	C615.281677,547.427002 613.806885,546.339111 610.357361,546.347839 
	C576.701843,546.433044 543.045837,546.440613 509.390564,546.316101 
	C505.768036,546.302673 504.651459,547.558167 504.047485,551.049438 
	C501.963135,563.098083 496.920715,573.916138 488.760773,583.069519 
	C485.741211,586.456604 482.028381,589.225647 478.631744,592.276550 
	C478.971161,592.742859 479.310547,593.209167 479.649933,593.675476 
	C521.599670,593.675476 563.549438,593.675476 606.498657,593.676086 
z"/>
<path fill="#000000" opacity="1.000000" stroke="none" 
	d="
M667.153687,679.357910 
	C648.957031,679.770569 634.543518,691.204407 629.129639,710.471008 
	C623.617188,730.088257 626.182434,748.536926 640.892212,763.736328 
	C658.671204,782.107117 695.401978,777.576172 704.914978,753.721619 
	C705.521545,752.200684 706.134827,750.371216 708.386780,750.956726 
	C716.872803,753.163269 725.342163,755.433777 734.356995,757.823242 
	C731.201721,768.924866 725.497437,777.920593 717.418823,785.290649 
	C684.432556,815.383728 623.988281,807.884338 602.999268,763.638123 
	C588.906860,733.930542 593.406677,691.229492 620.079224,668.601318 
	C635.809692,655.256042 654.101135,649.937561 674.694031,651.361267 
	C689.620422,652.393188 703.026062,657.021912 714.794067,666.119385 
	C724.391846,673.539246 730.986389,683.193665 734.757263,694.782471 
	C735.670715,697.589600 735.136963,699.371887 732.205139,700.033020 
	C723.164429,702.071716 714.107849,704.039856 704.724854,706.108704 
	C699.001099,687.649292 686.226074,679.352234 667.153687,679.357910 
z"/>
<path fill="#000000" opacity="1.000000" stroke="none" 
	d="
M198.126038,707.067017 
	C191.550858,728.674683 193.351288,748.361084 209.915314,764.631042 
	C226.708557,781.126038 262.235809,778.259155 272.943390,753.862976 
	C274.121368,751.179016 275.377350,750.522400 278.249054,751.366943 
	C285.098358,753.381226 292.051788,755.051636 298.992279,756.741211 
	C302.244110,757.532837 302.786499,759.026611 301.500305,762.125244 
	C291.906250,785.238953 274.347687,798.250732 250.052795,802.214966 
	C229.506027,805.567566 210.249313,801.631714 193.123413,789.478455 
	C173.474091,775.534546 164.844833,755.754395 163.635086,732.200378 
	C162.628540,712.602234 166.677353,694.395203 178.935989,678.708313 
	C191.681946,662.398010 208.620956,653.608521 229.252380,651.560669 
	C248.413528,649.658752 266.001862,653.633362 281.590454,665.025940 
	C292.959930,673.335022 300.632294,684.343872 304.140930,698.695374 
	C293.962280,701.909851 283.723877,703.667908 273.374969,705.977051 
	C270.973053,701.207336 269.722839,696.110291 266.225464,692.154602 
	C248.875824,672.531311 215.697998,675.599548 202.366028,698.164734 
	C200.765579,700.873596 199.613220,703.847168 198.126038,707.067017 
z"/>
<path fill="#000000" opacity="1.000000" stroke="none" 
	d="
M365.093353,715.351196 
	C356.516144,715.680420 349.611359,718.145630 345.903412,726.149048 
	C345.178833,727.713135 344.007690,728.301086 342.288391,728.136353 
	C335.509918,727.486694 328.731201,726.822876 321.941406,726.313354 
	C318.014648,726.018677 318.395630,723.363831 318.927002,720.907349 
	C321.123291,710.754333 326.819519,702.966187 335.741455,697.770142 
	C347.110565,691.148865 359.626709,689.904419 372.434967,691.056458 
	C380.930115,691.820557 389.078735,693.923645 396.578644,698.321045 
	C407.690338,704.836243 412.951996,714.912903 413.214783,727.243408 
	C413.690277,749.555908 413.053802,771.890869 414.144318,794.196899 
	C414.360565,798.620605 413.068085,800.638123 408.290039,800.350708 
	C402.644867,800.011169 396.952332,800.042603 391.302338,800.336365 
	C387.045380,800.557861 384.989990,799.244507 385.516357,794.756592 
	C385.625336,793.827148 385.195099,792.834412 385.018250,791.896790 
	C383.015350,791.600281 382.222198,793.084167 381.092194,793.945435 
	C364.898834,806.286865 337.030640,806.740723 322.660156,791.800476 
	C312.307800,781.037537 311.609589,762.499512 321.504517,751.240723 
	C330.123657,741.433472 341.758392,738.367615 353.980835,736.679077 
	C362.709137,735.473206 371.466248,734.399719 380.304840,734.674316 
	C383.995148,734.788879 384.946045,733.048035 384.462616,729.708557 
	C383.081146,720.165527 376.869781,715.410095 365.093353,715.351196 
M384.586823,756.843445 
	C384.754822,754.688904 383.851074,753.905884 381.633636,754.073608 
	C378.155762,754.336731 374.617493,754.012817 371.172974,754.461182 
	C364.297913,755.356079 357.197601,755.162781 350.734497,758.310120 
	C346.076019,760.578674 343.520386,764.280334 343.882019,769.439514 
	C344.220490,774.268921 347.301483,777.244446 351.790985,778.690918 
	C356.815643,780.309753 362.019073,780.211365 367.042664,779.076599 
	C378.346436,776.523376 383.418213,768.602539 384.586823,756.843445 
z"/>
<path fill="#000000" opacity="1.000000" stroke="none" 
	d="
M828.088257,795.254028 
	C800.715759,810.671204 767.078186,803.555847 750.788635,778.597534 
	C732.380005,750.392517 741.931458,697.941589 788.279358,691.394226 
	C820.310242,686.869324 847.314209,704.059021 852.613098,735.687866 
	C856.350098,757.994080 852.577576,779.281250 828.088257,795.254028 
M821.808105,761.261841 
	C825.349426,753.515686 825.183289,745.516235 823.618408,737.358032 
	C821.597290,726.821472 812.513550,717.589111 802.769043,716.386841 
	C789.416992,714.739502 779.301331,720.174316 774.407104,731.708191 
	C771.758911,737.949097 770.663086,744.564636 771.486511,751.223938 
	C772.715515,761.163696 776.249512,770.158203 786.102966,774.637390 
	C798.229797,780.150024 815.034119,776.834351 821.808105,761.261841 
z"/>
<path fill="#000000" opacity="1.000000" stroke="none" 
	d="
M582.111694,708.881042 
	C582.106445,709.859009 582.106140,710.358521 582.099121,710.857971 
	C582.007080,717.442322 582.006897,717.429382 575.631958,717.406677 
	C571.303101,717.391296 566.972900,717.481567 562.645569,717.403931 
	C559.853027,717.353943 558.262024,718.166260 558.362305,721.364807 
	C558.810547,735.660095 558.078979,749.958313 559.048401,764.273193 
	C559.640564,773.018127 565.653320,779.338806 577.159302,777.396423 
	C578.931152,777.097229 580.618958,776.138428 583.205261,777.239624 
	C583.205261,783.356689 583.223877,789.782715 583.191650,796.208435 
	C583.184021,797.726929 582.167358,798.515015 580.871216,799.137878 
	C570.136719,804.296326 549.095215,801.164490 540.094055,793.189453 
	C533.715881,787.538269 530.641663,780.534973 530.650146,772.068420 
	C530.665894,756.417542 530.665039,740.766541 530.623474,725.115723 
	C530.604614,718.011780 530.547852,718.134094 523.503601,717.838196 
	C510.723419,717.301453 512.954163,718.704285 512.825684,707.040344 
	C512.680969,693.905029 512.761780,693.746155 525.583679,693.750000 
	C529.636292,693.751221 530.767883,692.360474 530.634094,688.501160 
	C530.382385,681.245422 530.561462,673.974731 530.561462,666.044373 
	C538.894958,666.044373 546.512695,666.136658 554.126343,666.001709 
	C557.464539,665.942505 558.444336,667.431641 558.375183,670.536072 
	C558.238098,676.693420 558.469055,682.859619 558.296692,689.015137 
	C558.199585,692.481812 559.532043,693.821899 562.977783,693.689026 
	C567.466431,693.515991 571.984680,693.904968 576.457581,693.589539 
	C580.965759,693.271667 582.424377,695.202454 582.130920,699.414429 
	C581.923218,702.396362 582.105469,705.405579 582.111694,708.881042 
z"/>
<path fill="#000000" opacity="1.000000" stroke="none" 
	d="
M483.633118,719.540649 
	C470.144531,724.456848 464.394287,732.539856 464.356659,746.390137 
	C464.312744,762.540100 464.236115,778.691223 464.410675,794.839355 
	C464.454315,798.878113 463.298401,800.531799 459.065125,800.336853 
	C452.751465,800.046082 446.414734,800.207336 440.088501,800.260132 
	C437.353271,800.282898 435.645477,799.521362 435.653839,796.351562 
	C435.743042,762.559082 435.781006,728.766418 435.841553,694.973816 
	C435.841827,694.825745 435.964691,694.677917 436.365662,693.773621 
	C444.250824,693.773621 452.495239,693.755920 460.739502,693.784912 
	C463.052917,693.793091 463.307922,695.473267 463.316437,697.253296 
	C463.328156,699.706421 463.319336,702.159607 463.319336,705.021118 
	C465.867554,704.578186 466.914429,703.000122 468.166168,701.812866 
	C475.832489,694.541809 485.072388,691.569397 495.473145,691.677307 
	C499.406952,691.718140 501.616058,693.066589 501.422729,697.599670 
	C501.126801,704.538757 501.345093,711.499878 501.345093,718.781006 
	C495.103607,718.571228 489.480957,717.641235 483.633118,719.540649 
z"/>
<path fill="#000000" opacity="1.000000" stroke="none" 
	d="
M874.896179,801.401917 
	C863.915283,801.155396 856.502319,794.281189 856.081299,784.382996 
	C855.682434,775.004272 862.932190,766.988342 872.838257,765.855103 
	C881.910156,764.817261 890.982239,773.048950 891.904968,783.155518 
	C892.735779,792.254822 884.999512,800.772705 874.896179,801.401917 
z"/>
<path fill="#000000" opacity="1.000000" stroke="none" 
	d="
M431.514893,517.860962 
	C446.165192,515.818848 462.180359,529.050476 456.515381,547.462036 
	C453.552612,557.091187 443.073059,563.861511 433.387787,562.970703 
	C422.963623,562.011902 413.846954,553.518799 412.715027,543.711975 
	C411.415710,532.455139 417.434479,522.523560 427.746124,518.938477 
	C428.843262,518.557068 429.973694,518.271240 431.514893,517.860962 
z"/>
</svg>